<mxfile host="drawio-plugin" modified="2023-11-18T00:45:02.538Z" agent="5.0 (Windows NT 10.0; Win64; x64) AppleWebKit/537.36 (KHTML, like Gecko) Chrome/111.0.0.0 Safari/537.36" etag="dDxe9qjPwFUcLagW3nzi" version="20.5.3" type="embed"><diagram name="Page-1" id="uJlZZ8GzOuchY80w957W"><mxGraphModel dx="584" dy="306" grid="0" gridSize="10" guides="1" tooltips="1" connect="1" arrows="1" fold="1" page="1" pageScale="1" pageWidth="850" pageHeight="1100" math="0" shadow="0"><root><mxCell id="0"/><mxCell id="1" parent="0"/><mxCell id="S6WL_8YAi1D2qai2WmP8-15" value="Asteroid" style="swimlane;fontStyle=1;align=center;verticalAlign=top;childLayout=stackLayout;horizontal=1;startSize=26;horizontalStack=0;resizeParent=1;resizeParentMax=0;resizeLast=0;collapsible=1;marginBottom=0;whiteSpace=wrap;html=1;" parent="1" vertex="1"><mxGeometry x="452" y="405" width="160" height="86" as="geometry"/></mxCell><mxCell id="S6WL_8YAi1D2qai2WmP8-16" value="+ field: type" style="text;strokeColor=none;fillColor=none;align=left;verticalAlign=top;spacingLeft=4;spacingRight=4;overflow=hidden;rotatable=0;points=[[0,0.5],[1,0.5]];portConstraint=eastwest;whiteSpace=wrap;html=1;" parent="S6WL_8YAi1D2qai2WmP8-15" vertex="1"><mxGeometry y="26" width="160" height="26" as="geometry"/></mxCell><mxCell id="S6WL_8YAi1D2qai2WmP8-17" value="" style="line;strokeWidth=1;fillColor=none;align=left;verticalAlign=middle;spacingTop=-1;spacingLeft=3;spacingRight=3;rotatable=0;labelPosition=right;points=[];portConstraint=eastwest;strokeColor=inherit;" parent="S6WL_8YAi1D2qai2WmP8-15" vertex="1"><mxGeometry y="52" width="160" height="8" as="geometry"/></mxCell><mxCell id="S6WL_8YAi1D2qai2WmP8-18" value="+ method(type): type" style="text;strokeColor=none;fillColor=none;align=left;verticalAlign=top;spacingLeft=4;spacingRight=4;overflow=hidden;rotatable=0;points=[[0,0.5],[1,0.5]];portConstraint=eastwest;whiteSpace=wrap;html=1;" parent="S6WL_8YAi1D2qai2WmP8-15" vertex="1"><mxGeometry y="60" width="160" height="26" as="geometry"/></mxCell><mxCell id="S6WL_8YAi1D2qai2WmP8-19" value="Player" style="swimlane;fontStyle=1;align=center;verticalAlign=top;childLayout=stackLayout;horizontal=1;startSize=26;horizontalStack=0;resizeParent=1;resizeParentMax=0;resizeLast=0;collapsible=1;marginBottom=0;whiteSpace=wrap;html=1;" parent="1" vertex="1"><mxGeometry x="70" y="10" width="190" height="241" as="geometry"/></mxCell><mxCell id="S6WL_8YAi1D2qai2WmP8-20" value="&lt;div&gt;- health: int&lt;/div&gt;&lt;div&gt;- velocity: int&lt;/div&gt;&lt;div&gt;- image: Surface&lt;/div&gt;&lt;div&gt;- rect: Rect&lt;/div&gt;" style="text;strokeColor=none;fillColor=none;align=left;verticalAlign=top;spacingLeft=4;spacingRight=4;overflow=hidden;rotatable=0;points=[[0,0.5],[1,0.5]];portConstraint=eastwest;whiteSpace=wrap;html=1;" parent="S6WL_8YAi1D2qai2WmP8-19" vertex="1"><mxGeometry y="26" width="190" height="66" as="geometry"/></mxCell><mxCell id="S6WL_8YAi1D2qai2WmP8-21" value="" style="line;strokeWidth=1;fillColor=none;align=left;verticalAlign=middle;spacingTop=-1;spacingLeft=3;spacingRight=3;rotatable=0;labelPosition=right;points=[];portConstraint=eastwest;strokeColor=inherit;" parent="S6WL_8YAi1D2qai2WmP8-19" vertex="1"><mxGeometry y="92" width="190" height="8" as="geometry"/></mxCell><mxCell id="S6WL_8YAi1D2qai2WmP8-22" value="&lt;div&gt;+__init__()&lt;/div&gt;&lt;div&gt;&lt;div&gt;+ draw()&lt;/div&gt;&lt;/div&gt;&lt;div&gt;+ update()&lt;br&gt;&lt;/div&gt;&lt;div&gt;+ up()&lt;br&gt;&lt;/div&gt;&lt;div&gt;+ down()&lt;/div&gt;&lt;div&gt;+ rotateLeft()&lt;/div&gt;&lt;div&gt;+ rotateRight()&lt;/div&gt;&lt;div&gt;+ shoot()&lt;br&gt;&lt;/div&gt;&lt;div&gt;+ die()&lt;/div&gt;" style="text;strokeColor=none;fillColor=none;align=left;verticalAlign=middle;spacingLeft=4;spacingRight=4;overflow=hidden;rotatable=0;points=[[0,0.5],[1,0.5]];portConstraint=eastwest;whiteSpace=wrap;html=1;strokeWidth=1;horizontal=1;" parent="S6WL_8YAi1D2qai2WmP8-19" vertex="1"><mxGeometry y="100" width="190" height="141" as="geometry"/></mxCell><mxCell id="S6WL_8YAi1D2qai2WmP8-23" value="Asteroid Small" style="swimlane;fontStyle=1;align=center;verticalAlign=top;childLayout=stackLayout;horizontal=1;startSize=26;horizontalStack=0;resizeParent=1;resizeParentMax=0;resizeLast=0;collapsible=1;marginBottom=0;whiteSpace=wrap;html=1;" parent="1" vertex="1"><mxGeometry x="252" y="535" width="160" height="86" as="geometry"/></mxCell><mxCell id="S6WL_8YAi1D2qai2WmP8-24" value="+ field: type" style="text;strokeColor=none;fillColor=none;align=left;verticalAlign=top;spacingLeft=4;spacingRight=4;overflow=hidden;rotatable=0;points=[[0,0.5],[1,0.5]];portConstraint=eastwest;whiteSpace=wrap;html=1;" parent="S6WL_8YAi1D2qai2WmP8-23" vertex="1"><mxGeometry y="26" width="160" height="26" as="geometry"/></mxCell><mxCell id="S6WL_8YAi1D2qai2WmP8-25" value="" style="line;strokeWidth=1;fillColor=none;align=left;verticalAlign=middle;spacingTop=-1;spacingLeft=3;spacingRight=3;rotatable=0;labelPosition=right;points=[];portConstraint=eastwest;strokeColor=inherit;" parent="S6WL_8YAi1D2qai2WmP8-23" vertex="1"><mxGeometry y="52" width="160" height="8" as="geometry"/></mxCell><mxCell id="S6WL_8YAi1D2qai2WmP8-26" value="+ method(type): type" style="text;strokeColor=none;fillColor=none;align=left;verticalAlign=top;spacingLeft=4;spacingRight=4;overflow=hidden;rotatable=0;points=[[0,0.5],[1,0.5]];portConstraint=eastwest;whiteSpace=wrap;html=1;" parent="S6WL_8YAi1D2qai2WmP8-23" vertex="1"><mxGeometry y="60" width="160" height="26" as="geometry"/></mxCell><mxCell id="S6WL_8YAi1D2qai2WmP8-27" value="Asteroid Large" style="swimlane;fontStyle=1;align=center;verticalAlign=top;childLayout=stackLayout;horizontal=1;startSize=26;horizontalStack=0;resizeParent=1;resizeParentMax=0;resizeLast=0;collapsible=1;marginBottom=0;whiteSpace=wrap;html=1;" parent="1" vertex="1"><mxGeometry x="652" y="535" width="160" height="86" as="geometry"/></mxCell><mxCell id="S6WL_8YAi1D2qai2WmP8-28" value="+ field: type" style="text;strokeColor=none;fillColor=none;align=left;verticalAlign=top;spacingLeft=4;spacingRight=4;overflow=hidden;rotatable=0;points=[[0,0.5],[1,0.5]];portConstraint=eastwest;whiteSpace=wrap;html=1;" parent="S6WL_8YAi1D2qai2WmP8-27" vertex="1"><mxGeometry y="26" width="160" height="26" as="geometry"/></mxCell><mxCell id="S6WL_8YAi1D2qai2WmP8-29" value="" style="line;strokeWidth=1;fillColor=none;align=left;verticalAlign=middle;spacingTop=-1;spacingLeft=3;spacingRight=3;rotatable=0;labelPosition=right;points=[];portConstraint=eastwest;strokeColor=inherit;" parent="S6WL_8YAi1D2qai2WmP8-27" vertex="1"><mxGeometry y="52" width="160" height="8" as="geometry"/></mxCell><mxCell id="S6WL_8YAi1D2qai2WmP8-30" value="+ method(type): type" style="text;strokeColor=none;fillColor=none;align=left;verticalAlign=top;spacingLeft=4;spacingRight=4;overflow=hidden;rotatable=0;points=[[0,0.5],[1,0.5]];portConstraint=eastwest;whiteSpace=wrap;html=1;" parent="S6WL_8YAi1D2qai2WmP8-27" vertex="1"><mxGeometry y="60" width="160" height="26" as="geometry"/></mxCell><mxCell id="S6WL_8YAi1D2qai2WmP8-44" style="edgeStyle=orthogonalEdgeStyle;rounded=0;orthogonalLoop=1;jettySize=auto;html=1;exitX=0.5;exitY=0;exitDx=0;exitDy=0;entryX=0.5;entryY=1;entryDx=0;entryDy=0;endArrow=block;endFill=0;" parent="1" source="S6WL_8YAi1D2qai2WmP8-31" target="S6WL_8YAi1D2qai2WmP8-15" edge="1"><mxGeometry relative="1" as="geometry"/></mxCell><mxCell id="S6WL_8YAi1D2qai2WmP8-31" value="Asteroid Med" style="swimlane;fontStyle=1;align=center;verticalAlign=top;childLayout=stackLayout;horizontal=1;startSize=26;horizontalStack=0;resizeParent=1;resizeParentMax=0;resizeLast=0;collapsible=1;marginBottom=0;whiteSpace=wrap;html=1;" parent="1" vertex="1"><mxGeometry x="452" y="535" width="160" height="86" as="geometry"/></mxCell><mxCell id="S6WL_8YAi1D2qai2WmP8-32" value="+ field: type" style="text;strokeColor=none;fillColor=none;align=left;verticalAlign=top;spacingLeft=4;spacingRight=4;overflow=hidden;rotatable=0;points=[[0,0.5],[1,0.5]];portConstraint=eastwest;whiteSpace=wrap;html=1;" parent="S6WL_8YAi1D2qai2WmP8-31" vertex="1"><mxGeometry y="26" width="160" height="26" as="geometry"/></mxCell><mxCell id="S6WL_8YAi1D2qai2WmP8-33" value="" style="line;strokeWidth=1;fillColor=none;align=left;verticalAlign=middle;spacingTop=-1;spacingLeft=3;spacingRight=3;rotatable=0;labelPosition=right;points=[];portConstraint=eastwest;strokeColor=inherit;" parent="S6WL_8YAi1D2qai2WmP8-31" vertex="1"><mxGeometry y="52" width="160" height="8" as="geometry"/></mxCell><mxCell id="S6WL_8YAi1D2qai2WmP8-34" value="+ method(type): type" style="text;strokeColor=none;fillColor=none;align=left;verticalAlign=top;spacingLeft=4;spacingRight=4;overflow=hidden;rotatable=0;points=[[0,0.5],[1,0.5]];portConstraint=eastwest;whiteSpace=wrap;html=1;" parent="S6WL_8YAi1D2qai2WmP8-31" vertex="1"><mxGeometry y="60" width="160" height="26" as="geometry"/></mxCell><mxCell id="S6WL_8YAi1D2qai2WmP8-38" style="edgeStyle=orthogonalEdgeStyle;rounded=0;orthogonalLoop=1;jettySize=auto;html=1;entryX=1;entryY=0.5;entryDx=0;entryDy=0;endArrow=block;endFill=0;exitX=0.5;exitY=0;exitDx=0;exitDy=0;" parent="1" source="S6WL_8YAi1D2qai2WmP8-27" target="S6WL_8YAi1D2qai2WmP8-18" edge="1"><mxGeometry relative="1" as="geometry"><mxPoint x="682" y="455" as="sourcePoint"/></mxGeometry></mxCell><mxCell id="S6WL_8YAi1D2qai2WmP8-39" style="edgeStyle=orthogonalEdgeStyle;rounded=0;orthogonalLoop=1;jettySize=auto;html=1;entryX=0;entryY=0.5;entryDx=0;entryDy=0;endArrow=block;endFill=0;exitX=0.5;exitY=0;exitDx=0;exitDy=0;" parent="1" source="S6WL_8YAi1D2qai2WmP8-23" target="S6WL_8YAi1D2qai2WmP8-18" edge="1"><mxGeometry relative="1" as="geometry"><mxPoint x="402" y="455" as="sourcePoint"/></mxGeometry></mxCell><mxCell id="S6WL_8YAi1D2qai2WmP8-40" value="Projectile" style="swimlane;fontStyle=1;align=center;verticalAlign=top;childLayout=stackLayout;horizontal=1;startSize=26;horizontalStack=0;resizeParent=1;resizeParentMax=0;resizeLast=0;collapsible=1;marginBottom=0;whiteSpace=wrap;html=1;" parent="1" vertex="1"><mxGeometry x="10" y="270" width="160" height="86" as="geometry"/></mxCell><mxCell id="S6WL_8YAi1D2qai2WmP8-41" value="+ field: type" style="text;strokeColor=none;fillColor=none;align=left;verticalAlign=top;spacingLeft=4;spacingRight=4;overflow=hidden;rotatable=0;points=[[0,0.5],[1,0.5]];portConstraint=eastwest;whiteSpace=wrap;html=1;" parent="S6WL_8YAi1D2qai2WmP8-40" vertex="1"><mxGeometry y="26" width="160" height="26" as="geometry"/></mxCell><mxCell id="S6WL_8YAi1D2qai2WmP8-42" value="" style="line;strokeWidth=1;fillColor=none;align=left;verticalAlign=middle;spacingTop=-1;spacingLeft=3;spacingRight=3;rotatable=0;labelPosition=right;points=[];portConstraint=eastwest;strokeColor=inherit;" parent="S6WL_8YAi1D2qai2WmP8-40" vertex="1"><mxGeometry y="52" width="160" height="8" as="geometry"/></mxCell><mxCell id="S6WL_8YAi1D2qai2WmP8-43" value="+ method(type): type" style="text;strokeColor=none;fillColor=none;align=left;verticalAlign=top;spacingLeft=4;spacingRight=4;overflow=hidden;rotatable=0;points=[[0,0.5],[1,0.5]];portConstraint=eastwest;whiteSpace=wrap;html=1;" parent="S6WL_8YAi1D2qai2WmP8-40" vertex="1"><mxGeometry y="60" width="160" height="26" as="geometry"/></mxCell><mxCell id="S6WL_8YAi1D2qai2WmP8-49" value="" style="endArrow=none;html=1;edgeStyle=orthogonalEdgeStyle;rounded=0;exitX=0.25;exitY=0;exitDx=0;exitDy=0;entryX=0;entryY=0.5;entryDx=0;entryDy=0;" parent="1" source="S6WL_8YAi1D2qai2WmP8-40" target="S6WL_8YAi1D2qai2WmP8-20" edge="1"><mxGeometry relative="1" as="geometry"><mxPoint x="380" y="190" as="sourcePoint"/><mxPoint x="540" y="190" as="targetPoint"/></mxGeometry></mxCell></root></mxGraphModel></diagram></mxfile>